<svg width="1000" height="1000" viewBox="0 0 1000 1000" fill="none" xmlns="http://www.w3.org/2000/svg">
<g clip-path="url(#clip0_2_2)">
<path d="M5.32187 587.959C5.32187 592.93 9.35205 596.97 14.3213 596.857C63.1244 595.744 111.326 585.594 156.474 566.893C204.395 547.044 247.937 517.95 284.615 481.272C321.292 444.595 350.386 401.053 370.235 353.132C388.936 307.984 399.087 259.782 400.199 210.979C400.312 206.01 396.272 201.98 391.301 201.98L251.31 201.98C246.339 201.98 242.328 206.011 242.139 210.978C241.073 239.029 235.031 266.692 224.27 292.671C212.36 321.424 194.904 347.549 172.898 369.555C150.891 391.562 124.766 409.018 96.0132 420.928C70.0346 431.688 42.3709 437.731 14.3198 438.796C9.35285 438.985 5.32187 442.997 5.32187 447.967L5.32187 587.959Z" fill="#AB63F8"/>
<path d="M3.97982 449.041C3.97982 444.07 8.01001 440.03 12.9793 440.143C61.7824 441.255 109.984 451.406 155.132 470.107C203.053 489.956 246.595 519.05 283.273 555.727C319.95 592.405 349.044 635.947 368.893 683.868C387.594 729.016 397.745 777.218 398.857 826.021C398.97 830.99 394.93 835.02 389.959 835.02L249.968 835.02C244.997 835.02 240.985 830.989 240.797 826.022C239.731 797.971 233.689 770.307 222.928 744.329C211.018 715.576 193.562 689.451 171.556 667.444C149.549 645.438 123.424 627.982 94.6711 616.072C68.6926 605.311 41.0288 599.269 12.9778 598.203C8.01081 598.015 3.97983 594.003 3.97983 589.032L3.97982 449.041Z" fill="#843CD4"/>
<path d="M994.446 587.959C994.446 592.93 990.416 596.97 985.447 596.857C936.556 595.747 888.267 585.596 843.038 566.893C795.035 547.044 751.419 517.95 714.679 481.272C677.94 444.595 648.797 401.053 628.913 353.132C610.181 307.984 600.013 259.782 598.899 210.979C598.785 206.01 602.826 201.98 607.796 201.98L748.056 201.98C753.027 201.98 757.038 206.011 757.227 210.978C758.295 239.029 764.348 266.692 775.127 292.671C787.056 321.424 804.543 347.549 826.586 369.555C848.63 391.562 874.8 409.018 903.601 420.928C929.629 431.69 957.345 437.733 985.448 438.797C990.415 438.985 994.446 442.997 994.446 447.967L994.446 587.959Z" fill="#E7A103"/>
<path d="M994.446 449.041C994.446 444.07 990.416 440.03 985.447 440.143C936.556 441.253 888.267 451.404 843.038 470.107C795.035 489.956 751.419 519.05 714.679 555.727C677.94 592.405 648.797 635.947 628.913 683.868C610.181 729.016 600.013 777.218 598.899 826.021C598.785 830.99 602.826 835.02 607.796 835.02L748.056 835.02C753.027 835.02 757.038 830.989 757.227 826.022C758.295 797.971 764.348 770.307 775.127 744.329C787.056 715.576 804.543 689.451 826.586 667.444C848.63 645.438 874.8 627.982 903.601 616.072C929.629 605.309 957.345 599.267 985.448 598.203C990.415 598.015 994.446 594.003 994.446 589.032L994.446 449.041Z" fill="#FEBE29"/>
<path d="M596.864 206.451C598.476 203.682 601.438 201.979 604.642 201.979H750.807C757.746 201.979 762.075 209.501 758.589 215.501L401.609 829.87C399.998 832.643 397.034 834.349 393.828 834.349H246.966C240.023 834.349 235.695 826.821 239.188 820.821L596.864 206.451Z" fill="url(#paint0_linear_2_2)"/>
</g>
<defs>
<linearGradient id="paint0_linear_2_2" x1="545.096" y1="189.238" x2="545.096" y2="834.349" gradientUnits="userSpaceOnUse">
<stop stop-color="#AB63F8"/>
<stop offset="1" stop-color="#FEBE29"/>
</linearGradient>
<clipPath id="clip0_2_2">
<rect width="1000" height="1000" fill="white"/>
</clipPath>
</defs>
</svg>
